<svg xmlns="http://www.w3.org/2000/svg" xmlns:xlink="http://www.w3.org/1999/xlink" width="24" height="24" viewBox="0 0 24 24" fill="none">
<path   fill="rgba(51, 51, 51, 1)"  d="M9.5 5.5L9.5 12C9.5 13.3807 10.6193 14.5 12 14.5C13.3807 14.5 14.5 13.3807 14.5 12L14.5 5.5C14.5 4.11929 13.3807 3 12 3C10.6193 3 9.5 4.11929 9.5 5.5L7.5 5.5C7.5 3.01472 9.51472 1 12 1C14.4853 1 16.5 3.01472 16.5 5.5L16.5 12C16.5 14.4853 14.4853 16.5 12 16.5C9.51472 16.5 7.5 14.4853 7.5 12L7.5 5.5L9.5 5.5Z">
</path>
<path    stroke="rgba(51, 51, 51, 1)" stroke-width="2" stroke-linejoin="round" stroke-linecap="round"  d="M4.5 11.5C4.5 15.6421 7.85785 19 12 19C16.1422 19 19.5 15.6421 19.5 11.5">
</path>
<path    stroke="rgba(51, 51, 51, 1)" stroke-width="2" stroke-linejoin="round" stroke-linecap="round"  d="M12 19L12 22">
</path>
</svg>
