<svg xmlns="http://www.w3.org/2000/svg" xmlns:xlink="http://www.w3.org/1999/xlink" width="24" height="24" viewBox="0 0 24 24" fill="none">
<path d="M10.5 19.667C5.43739 19.667 1.33333 15.5629 1.33333 10.5003C1.33333 5.43768 5.43739 1.33362 10.5 1.33362C15.5626 1.33362 19.6667 5.43768 19.6667 10.5003C19.6667 12.7915 18.826 14.8864 17.4364 16.4934L21.3249 20.3818Q21.3713 20.4283 21.4078 20.4829Q21.4442 20.5374 21.4694 20.5981Q21.4945 20.6588 21.5073 20.7232Q21.5201 20.7876 21.5201 20.8532Q21.5201 20.9189 21.5073 20.9833Q21.4945 21.0477 21.4694 21.1084Q21.4442 21.169 21.4078 21.2236Q21.3713 21.2782 21.3249 21.3246Q21.2784 21.3711 21.2238 21.4076Q21.1692 21.444 21.1086 21.4692Q21.0479 21.4943 20.9835 21.5071Q20.9191 21.5199 20.8534 21.5199Q20.7878 21.5199 20.7234 21.5071Q20.659 21.4943 20.5983 21.4692Q20.5377 21.444 20.4831 21.4075Q20.4285 21.3711 20.382 21.3246L16.4936 17.4362C14.8866 18.8261 12.7915 19.667 10.5 19.667ZM10.5 18.3336C14.8262 18.3336 18.3333 14.8265 18.3333 10.5003C18.3333 6.17406 14.8262 2.66695 10.5 2.66695C6.17377 2.66695 2.66666 6.17406 2.66666 10.5003C2.66666 14.8265 6.17377 18.3336 10.5 18.3336Z" stroke="rgba(51, 51, 51, 0.4)" stroke-width="1" stroke-linejoin="round"   fill-rule="evenodd"  fill="#333333" fill-opacity="0.4">
</path>
</svg>
