<?xml version="1.0" standalone="no"?><!DOCTYPE svg PUBLIC "-//W3C//DTD SVG 1.1//EN" "http://www.w3.org/Graphics/SVG/1.1/DTD/svg11.dtd"><svg t="1711554293386" class="icon" viewBox="0 0 1024 1024" version="1.1" xmlns="http://www.w3.org/2000/svg" p-id="23252" xmlns:xlink="http://www.w3.org/1999/xlink" width="32" height="32"><path d="M512 162c-192.988 0-350 157.012-350 350 0 57.427 14.214 114.15 41.182 164.658l-11.523 150.176 146.182-11.216C390.696 845.994 450.691 862 512 862c192.988 0 350-157.012 350-350S704.988 162 512 162z m0 640c-53.555 0-105.879-14.727-151.328-42.593l-8.281-5.078-95.557 7.329 7.559-98.496-4.541-7.979C235.086 611.683 222 562.171 222 512c0-159.907 130.093-290 290-290s290 130.093 290 290-130.093 290-290 290z" fill="#B8B8B8" p-id="23253"></path><path d="M512 642c-62.793 0-114.385-48.505-119.492-110h-60c5.234 94.592 83.613 170 179.492 170s174.258-75.408 179.492-170h-60C626.385 593.495 574.793 642 512 642z" fill="#B8B8B8" p-id="23254"></path></svg>