<svg xmlns="http://www.w3.org/2000/svg" xmlns:xlink="http://www.w3.org/1999/xlink" width="24" height="24" viewBox="0 0 24 24" fill="none">
<path d="M2.5 19C2.5 19.55 2.95 20 3.5 20L20.5 20C21.05 20 21.5 19.55 21.5 19L21.5 5C21.5 4.45 21.05 4 20.5 4L3.5 4C2.95 4 2.5 4.45 2.5 5L2.5 19Z" stroke="rgba(51, 51, 51, 1)" stroke-width="2" stroke-linejoin="round" stroke-linecap="round" >
</path>
<path d="M8 8.25C8 7.84 7.66 7.5 7.25 7.5C6.84 7.5 6.5 7.84 6.5 8.25C6.5 8.66 6.84 9 7.25 9C7.66 9 8 8.66 8 8.25Z" stroke="rgba(51, 51, 51, 1)" stroke-width="2" stroke-linejoin="round" stroke-linecap="round" >
</path>
<path d="M2.5 17L2.5 19C2.5 19.55 2.95 20 3.5 20L20.5 20C21.05 20 21.5 19.55 21.5 19L21.5 17L13 10.5L10 14L7.5 12L2.5 17Z" stroke="rgba(51, 51, 51, 1)" stroke-width="2" stroke-linejoin="round"  >
</path>
</svg>
