<svg xmlns="http://www.w3.org/2000/svg" xmlns:xlink="http://www.w3.org/1999/xlink" width="16" height="16" viewBox="0 0 16 16" fill="none">
<path d="M9.20012 3.79992C9.20012 2.80992 8.39012 1.99992 7.40012 1.99992L5.00012 7.39992L5.00012 13.9999L11.9701 13.9999C12.5701 14.0099 13.0801 13.5699 13.1701 12.9799L14.0001 7.57992C14.0501 7.22992 13.9501 6.87992 13.7201 6.60992C13.4901 6.34992 13.1501 6.19992 12.8001 6.19992L9.20012 6.19992L9.20012 3.79992Z" stroke="rgba(136, 149, 171, 1)" stroke-width="1.3333333333333333" stroke-linejoin="round"  >
</path>
<path d="M3.4 7.33318C2.7 7.32318 2.09 7.90318 2 8.60318L2 12.8032C2.09 13.4932 2.7 14.0132 3.4 14.0032L5 14.0032L5 7.33318L3.4 7.33318Z" stroke="rgba(136, 149, 171, 1)" stroke-width="1.3333333333333333" stroke-linejoin="round"  >
</path>
</svg>
