<?xml version="1.0" standalone="no"?><!DOCTYPE svg PUBLIC "-//W3C//DTD SVG 1.1//EN" "http://www.w3.org/Graphics/SVG/1.1/DTD/svg11.dtd"><svg t="1711782499248" class="icon" viewBox="0 0 1024 1024" version="1.1" xmlns="http://www.w3.org/2000/svg" p-id="4271" xmlns:xlink="http://www.w3.org/1999/xlink" width="32" height="32"><path d="M512 954.88c-243.712 0-442.88-199.168-442.88-442.88s199.168-442.88 442.88-442.88 442.88 199.168 442.88 442.88-199.168 442.88-442.88 442.88z m0-63.488c208.896 0 379.392-170.496 379.392-379.392s-170.496-379.392-379.392-379.392-379.392 170.496-379.392 379.392 170.496 379.392 379.392 379.392z m192-360.96h-363.52c-14.336 0-26.624-11.776-26.624-26.624V496.64c0-14.336 11.776-26.624 26.624-26.624h363.52c14.336 0 26.624 11.776 26.624 26.624v7.168c0 14.336-12.288 26.624-26.624 26.624z m-212.48 171.52l1.024-363.52c0-14.336 11.776-26.624 26.624-26.624h7.168c14.336 0 26.624 11.776 26.624 26.624l-1.024 363.52c0 14.336-11.776 26.624-26.624 26.624h-7.168c-14.848 0-26.624-11.776-26.624-26.624z" p-id="4272" fill="#FFFFFF"></path></svg>