<?xml version="1.0" standalone="no"?><!DOCTYPE svg PUBLIC "-//W3C//DTD SVG 1.1//EN" "http://www.w3.org/Graphics/SVG/1.1/DTD/svg11.dtd"><svg t="1711554538785" class="icon" viewBox="0 0 1024 1024" version="1.1" xmlns="http://www.w3.org/2000/svg" p-id="40629" xmlns:xlink="http://www.w3.org/1999/xlink" width="32" height="32"><path d="M395.64 854.99c-17.15 0-32.88-10.07-40.06-25.64-7.16-15.51-4.66-33.92 6.35-46.96l2.53-2.73 39.49-36.92 0.12-0.12c3.3-3.3 4.82-8.03 4.07-12.64-0.75-4.6-3.7-8.58-7.87-10.66-50.99-25.31-94.07-64.15-124.57-112.33-31.33-49.49-47.89-106.76-47.89-165.62 0-82.82 32.25-160.69 90.82-219.26s136.43-90.82 219.26-90.82c82.82 0 160.68 32.26 219.25 90.82 58.57 58.57 90.82 136.44 90.82 219.26 0 58.86-16.56 116.13-47.9 165.63-30.51 48.18-73.58 87.02-124.56 112.31a14.537 14.537 0 0 0-7.87 10.66c-0.76 4.61 0.77 9.34 4.07 12.64l0.25 0.24 39.5 36.92c12.03 12.13 15.99 30.29 10.08 46.33-5.9 16.04-20.69 27.3-37.71 28.73l-3.9 0.17H395.64v-0.01z m18.3-66.31l-0.11 0.11c-4.18 4.17-5.41 10.39-3.16 15.85 2.26 5.45 7.53 8.98 13.44 8.98h227.57c5.9 0 11.18-3.52 13.43-8.98a14.51 14.51 0 0 0-3.15-15.85l-62.6-59.02v15.59a311.599 311.599 0 0 1-61.22 6.08h-0.51c-22.5 0-45.06-2.46-67.05-7.31-1.03-0.23-2.09-0.34-3.14-0.34-3.81 0-7.4 1.46-10.12 4.11l-43.38 40.78zM537.9 172.66c-145.78 0-266.3 118.55-268.67 264.26-1.18 72.34 26.29 140.75 77.34 192.64 51.08 51.92 119.05 80.51 191.37 80.51 1.45 0 2.9-0.01 4.36-0.04 145.73-2.34 264.3-122.87 264.3-268.67 0-148.16-120.54-268.7-268.7-268.7z m-0.41 447.59c-47.88 0-92.72-23.51-119.95-62.9-3.16-4.55-4.35-10.05-3.37-15.49s4.03-10.17 8.57-13.32a20.54 20.54 0 0 1 11.77-3.69c6.8 0 13.17 3.33 17.03 8.9a104.478 104.478 0 0 0 85.97 45.12c34.76 0 67.11-17.13 86.63-45.81 3.06-4.5 7.89-7.66 13.24-8.68 1.27-0.24 2.57-0.36 3.86-0.36 4.17 0 8.2 1.24 11.65 3.59 4.51 3.07 7.67 7.9 8.68 13.25a20.57 20.57 0 0 1-3.23 15.51 145.753 145.753 0 0 1-120.64 63.87h-0.21v0.01z" p-id="40630" fill="#000000"></path></svg>