<svg xmlns="http://www.w3.org/2000/svg" xmlns:xlink="http://www.w3.org/1999/xlink" width="22" height="22" viewBox="0 0 22 22" fill="none">
<path d="M2 1C1.45 1 1 1.45 1 2L1 8C1 8.55 1.45 9 2 9L8 9C8.55 9 9 8.55 9 8L9 2C9 1.45 8.55 1 8 1L2 1Z" stroke="rgba(255, 255, 255, 1)" stroke-width="2" stroke-linejoin="round"  >
</path>
<path d="M2 13C1.45 13 1 13.45 1 14L1 20C1 20.55 1.45 21 2 21L8 21C8.55 21 9 20.55 9 20L9 14C9 13.45 8.55 13 8 13L2 13Z" stroke="rgba(255, 255, 255, 1)" stroke-width="2" stroke-linejoin="round"  >
</path>
<path d="M14 1C13.45 1 13 1.45 13 2L13 8C13 8.55 13.45 9 14 9L20 9C20.55 9 21 8.55 21 8L21 2C21 1.45 20.55 1 20 1L14 1Z" stroke="rgba(255, 255, 255, 1)" stroke-width="2" stroke-linejoin="round"  >
</path>
<path    stroke="rgba(255, 255, 255, 1)" stroke-width="2" stroke-linejoin="round" stroke-linecap="round"  d="M13 13L21 13">
</path>
<path    stroke="rgba(255, 255, 255, 1)" stroke-width="2" stroke-linejoin="round" stroke-linecap="round"  d="M17 17L21 17">
</path>
<path    stroke="rgba(255, 255, 255, 1)" stroke-width="2" stroke-linejoin="round" stroke-linecap="round"  d="M13 21L21 21">
</path>
</svg>
