<?xml version="1.0" standalone="no"?><!DOCTYPE svg PUBLIC "-//W3C//DTD SVG 1.1//EN" "http://www.w3.org/Graphics/SVG/1.1/DTD/svg11.dtd"><svg t="1711720958415" class="icon" viewBox="0 0 1024 1024" version="1.1" xmlns="http://www.w3.org/2000/svg" p-id="8271" xmlns:xlink="http://www.w3.org/1999/xlink" width="32" height="32"><path d="M319.84 498.656a80 80 0 0 1 160 0v269.44h222.4v-128h257.28v280.32c0 21.76-17.6 39.68-39.68 39.68h-295.68c-79.68 0-144.32-64.64-144.32-144.32v64.32a80 80 0 0 1-160 0v-381.44z" fill="#D67D00" p-id="8272"></path><path d="M417.44 308.896l507.2 220.16c21.44 9.28 35.2 30.08 35.2 53.44v313.92h-217.92c-60.16 0-114.24-27.52-147.84-73.6-15.68-21.44-44.8-27.2-67.84-14.4l-104.32 58.24A96.16 96.16 0 0 1 291.04 832H256v-112l-42.4 0.416a80.64 80.64 0 0 1-69.44 40c-13.76 0-27.52-3.52-40-10.88-38.4-22.4-51.52-71.04-29.44-109.44l166.4-277.76a141.408 141.408 0 0 1 176.32-53.44zM260 640h132v22.08l72.48-41.824c4.864-2.816 9.824-5.12 14.88-6.976a111.584 111.584 0 0 0-111.2-101.184c-21.44 0-41.28 43.52-51.84 62.4L260 640z" fill="#FFC83D" p-id="8273"></path><path d="M613.92 66.656l76.16 44.16c9.6 5.44 12.8 17.6 7.36 27.2l-300.832 521.408-70.72 40.832a96.16 96.16 0 0 0-31.712 136.704l-17.856 30.976c-5.12 8.96-12.48 16.96-21.12 23.04l-88 66.56a14.976 14.976 0 0 1-23.36-13.44l12.16-110.08c0.96-10.88 4.16-21.44 9.6-30.72l421.12-729.28c5.44-9.6 17.6-12.8 27.2-7.36z" fill="#F95725" p-id="8274"></path><path d="M273.664 872.192l-109.76-65.856a74.24 74.24 0 0 0-7.904 27.68L147.52 910.72l47.008 26.112 60.672-45.856c7.232-5.12 13.568-11.552 18.464-18.784z" fill="#FBB8AB" p-id="8275"></path><path d="M149.92 887.136l-6.08 56.96c-0.96 12.48 13.12 20.48 23.36 13.44l44.8-34.24-62.08-36.16z" fill="#000000" p-id="8276"></path><path d="M524.64 181.536l110.72 64 33.28-57.6-110.72-64-33.28 57.6z" fill="#D3D3D3" p-id="8277"></path></svg>